<svg xmlns="http://www.w3.org/2000/svg" width="64" height="64" viewBox="0 0 64 64">
  <rect width="64" height="64" rx="15" fill="#ffffff"/>
  <g transform="translate(14 14) scale(1.5)" fill="none" stroke="#EC4899" stroke-width="2" stroke-linecap="round" stroke-linejoin="round">
    <path d="m14.622 17.897-10.68-2.913"/>
    <path d="M18.376 2.622a1 1 0 1 1 3.002 3.002L17.36 9.643a.5.5 0 0 0 0 .707l.944.944a2.41 2.41 0 0 1 0 3.408l-.944.944a.5.5 0 0 1-.707 0L8.354 9.354a.5.5 0 0 1 0-.707l.944-.944a2.41 2.41 0 0 1 3.408 0l.944.944a.5.5 0 0 0 .707 0z"/>
    <path d="M9 8c-1.804 2.71-3.97 3.46-6.583 3.948a.507.507 0 0 0-.302.819l7.32 8.883a1 1 0 0 0 1.185.204C12.735 21.39 15 18.467 15 15"/>
  </g>
</svg>
